  0
SECTION
  2
HEADER
  9
$ACADVER
  1
AC1009
  9
$EXTMIN
 10
0.0
 20
0.0
 30
0.0
  9
$EXTMAX
 10
1000.0
 20
1000.0
 30
0.0
  9
$FILLMODE
 70
 0
  9
$SPLFRAME
 70
 1
  0
ENDSEC
  0
SECTION
  2
TABLES
  0
TABLE
  2
LAYER
 70
1
  0
LAYER
  2
0
 70
     0
 62
     7
  6
CONTINUOUS
  0
ENDTAB
  0
ENDSEC
  0
SECTION
  2
ENTITIES
  0
LINE
  8
0
 62
     0
 10
259.271
 20
90.2794
 30
0.0
 11
259.584
 21
90.2684
 31
0.0
  0
LINE
  8
0
 62
     0
 10
259.584
 20
90.2684
 30
0.0
 11
259.895
 21
90.231
 31
0.0
  0
LINE
  8
0
 62
     0
 10
259.895
 20
90.231
 30
0.0
 11
260.204
 21
90.1693
 31
0.0
  0
LINE
  8
0
 62
     0
 10
260.204
 20
90.1693
 30
0.0
 11
260.507
 21
90.085
 31
0.0
  0
LINE
  8
0
 62
     0
 10
260.507
 20
90.085
 30
0.0
 11
260.8
 21
89.9763
 31
0.0
  0
LINE
  8
0
 62
     0
 10
260.8
 20
89.9763
 30
0.0
 11
261.086
 21
89.8454
 31
0.0
  0
LINE
  8
0
 62
     0
 10
261.086
 20
89.8454
 30
0.0
 11
261.36
 21
89.6909
 31
0.0
  0
LINE
  8
0
 62
     0
 10
261.36
 20
89.6909
 30
0.0
 11
261.622
 21
89.5174
 31
0.0
  0
LINE
  8
0
 62
     0
 10
261.622
 20
89.5174
 30
0.0
 11
261.867
 21
89.3216
 31
0.0
  0
LINE
  8
0
 62
     0
 10
261.867
 20
89.3216
 30
0.0
 11
262.099
 21
89.1081
 31
0.0
  0
LINE
  8
0
 62
     0
 10
262.099
 20
89.1081
 30
0.0
 11
262.312
 21
88.8781
 31
0.0
  0
LINE
  8
0
 62
     0
 10
262.312
 20
88.8781
 30
0.0
 11
262.507
 21
88.6312
 31
0.0
  0
LINE
  8
0
 62
     0
 10
262.507
 20
88.6312
 30
0.0
 11
262.68
 21
88.3694
 31
0.0
  0
LINE
  8
0
 62
     0
 10
262.68
 20
88.3694
 30
0.0
 11
262.835
 21
88.0953
 31
0.0
  0
LINE
  8
0
 62
     0
 10
262.835
 20
88.0953
 30
0.0
 11
262.965
 21
87.8113
 31
0.0
  0
LINE
  8
0
 62
     0
 10
262.965
 20
87.8113
 30
0.0
 11
263.075
 21
87.5164
 31
0.0
  0
LINE
  8
0
 62
     0
 10
263.075
 20
87.5164
 30
0.0
 11
263.16
 21
87.2134
 31
0.0
  0
LINE
  8
0
 62
     0
 10
263.16
 20
87.2134
 30
0.0
 11
263.221
 21
86.9061
 31
0.0
  0
LINE
  8
0
 62
     0
 10
263.221
 20
86.9061
 30
0.0
 11
263.258
 21
86.5932
 31
0.0
  0
LINE
  8
0
 62
     0
 10
263.258
 20
86.5932
 30
0.0
 11
263.271
 21
86.2803
 31
0.0
  0
LINE
  8
0
 62
     0
 10
263.271
 20
86.2803
 30
0.0
 11
263.271
 21
4.07899
 31
0.0
  0
LINE
  8
0
 62
     0
 10
263.271
 20
4.07899
 30
0.0
 11
263.258
 21
3.76619
 31
0.0
  0
LINE
  8
0
 62
     0
 10
263.258
 20
3.76619
 30
0.0
 11
263.221
 21
3.45336
 31
0.0
  0
LINE
  8
0
 62
     0
 10
263.221
 20
3.45336
 30
0.0
 11
263.16
 21
3.14606
 31
0.0
  0
LINE
  8
0
 62
     0
 10
263.16
 20
3.14606
 30
0.0
 11
263.075
 21
2.84289
 31
0.0
  0
LINE
  8
0
 62
     0
 10
263.075
 20
2.84289
 30
0.0
 11
262.965
 21
2.54937
 31
0.0
  0
LINE
  8
0
 62
     0
 10
262.965
 20
2.54937
 30
0.0
 11
262.835
 21
2.26412
 31
0.0
  0
LINE
  8
0
 62
     0
 10
262.835
 20
2.26412
 30
0.0
 11
262.68
 21
1.98989
 31
0.0
  0
LINE
  8
0
 62
     0
 10
262.68
 20
1.98989
 30
0.0
 11
262.507
 21
1.72806
 31
0.0
  0
LINE
  8
0
 62
     0
 10
262.507
 20
1.72806
 30
0.0
 11
262.312
 21
1.48139
 31
0.0
  0
LINE
  8
0
 62
     0
 10
262.312
 20
1.48139
 30
0.0
 11
262.099
 21
1.25126
 31
0.0
  0
LINE
  8
0
 62
     0
 10
262.099
 20
1.25126
 30
0.0
 11
261.867
 21
1.03766
 31
0.0
  0
LINE
  8
0
 62
     0
 10
261.867
 20
1.03766
 30
0.0
 11
261.622
 21
0.843361
 31
0.0
  0
LINE
  8
0
 62
     0
 10
261.622
 20
0.843361
 30
0.0
 11
261.36
 21
0.668348
 31
0.0
  0
LINE
  8
0
 62
     0
 10
261.36
 20
0.668348
 30
0.0
 11
261.086
 21
0.515387
 31
0.0
  0
LINE
  8
0
 62
     0
 10
261.086
 20
0.515387
 30
0.0
 11
260.8
 21
0.383096
 31
0.0
  0
LINE
  8
0
 62
     0
 10
260.8
 20
0.383096
 30
0.0
 11
260.507
 21
0.27423
 31
0.0
  0
LINE
  8
0
 62
     0
 10
260.507
 20
0.27423
 30
0.0
 11
260.204
 21
0.190169
 31
0.0
  0
LINE
  8
0
 62
     0
 10
260.204
 20
0.190169
 30
0.0
 11
259.895
 21
0.128157
 31
0.0
  0
LINE
  8
0
 62
     0
 10
259.895
 20
0.128157
 30
0.0
 11
259.584
 21
0.0923286
 31
0.0
  0
LINE
  8
0
 62
     0
 10
259.584
 20
0.0923286
 30
0.0
 11
259.271
 21
0.0785481
 31
0.0
  0
LINE
  8
0
 62
     0
 10
259.271
 20
0.0785481
 30
0.0
 11
4.09416
 21
0.0785481
 31
0.0
  0
LINE
  8
0
 62
     0
 10
4.09416
 20
0.0785481
 30
0.0
 11
3.78135
 21
0.0923286
 31
0.0
  0
LINE
  8
0
 62
     0
 10
3.78135
 20
0.0923286
 30
0.0
 11
3.46852
 21
0.128157
 31
0.0
  0
LINE
  8
0
 62
     0
 10
3.46852
 20
0.128157
 30
0.0
 11
3.16122
 21
0.190169
 31
0.0
  0
LINE
  8
0
 62
     0
 10
3.16122
 20
0.190169
 30
0.0
 11
2.85805
 21
0.27423
 31
0.0
  0
LINE
  8
0
 62
     0
 10
2.85805
 20
0.27423
 30
0.0
 11
2.56315
 21
0.383096
 31
0.0
  0
LINE
  8
0
 62
     0
 10
2.56315
 20
0.383096
 30
0.0
 11
2.27928
 21
0.515387
 31
0.0
  0
LINE
  8
0
 62
     0
 10
2.27928
 20
0.515387
 30
0.0
 11
2.00504
 21
0.668348
 31
0.0
  0
LINE
  8
0
 62
     0
 10
2.00504
 20
0.668348
 30
0.0
 11
1.74322
 21
0.843361
 31
0.0
  0
LINE
  8
0
 62
     0
 10
1.74322
 20
0.843361
 30
0.0
 11
1.49655
 21
1.03766
 31
0.0
  0
LINE
  8
0
 62
     0
 10
1.49655
 20
1.03766
 30
0.0
 11
1.26642
 21
1.25126
 31
0.0
  0
LINE
  8
0
 62
     0
 10
1.26642
 20
1.25126
 30
0.0
 11
1.05282
 21
1.48139
 31
0.0
  0
LINE
  8
0
 62
     0
 10
1.05282
 20
1.48139
 30
0.0
 11
0.857141
 21
1.72806
 31
0.0
  0
LINE
  8
0
 62
     0
 10
0.857141
 20
1.72806
 30
0.0
 11
0.683507
 21
1.98989
 31
0.0
  0
LINE
  8
0
 62
     0
 10
0.683507
 20
1.98989
 30
0.0
 11
0.529167
 21
2.26412
 31
0.0
  0
LINE
  8
0
 62
     0
 10
0.529167
 20
2.26412
 30
0.0
 11
0.398254
 21
2.54937
 31
0.0
  0
LINE
  8
0
 62
     0
 10
0.398254
 20
2.54937
 30
0.0
 11
0.289388
 21
2.84289
 31
0.0
  0
LINE
  8
0
 62
     0
 10
0.289388
 20
2.84289
 30
0.0
 11
0.205328
 21
3.14606
 31
0.0
  0
LINE
  8
0
 62
     0
 10
0.205328
 20
3.14606
 30
0.0
 11
0.143316
 21
3.45336
 31
0.0
  0
LINE
  8
0
 62
     0
 10
0.143316
 20
3.45336
 30
0.0
 11
0.106109
 21
3.76619
 31
0.0
  0
LINE
  8
0
 62
     0
 10
0.106109
 20
3.76619
 30
0.0
 11
0.0937066
 21
4.07899
 31
0.0
  0
LINE
  8
0
 62
     0
 10
0.0937066
 20
4.07899
 30
0.0
 11
0.0950846
 21
86.2803
 31
0.0
  0
LINE
  8
0
 62
     0
 10
0.0950846
 20
86.2803
 30
0.0
 11
0.106109
 21
86.5932
 31
0.0
  0
LINE
  8
0
 62
     0
 10
0.106109
 20
86.5932
 30
0.0
 11
0.143316
 21
86.9061
 31
0.0
  0
LINE
  8
0
 62
     0
 10
0.143316
 20
86.9061
 30
0.0
 11
0.205328
 21
87.2134
 31
0.0
  0
LINE
  8
0
 62
     0
 10
0.205328
 20
87.2134
 30
0.0
 11
0.289388
 21
87.5164
 31
0.0
  0
LINE
  8
0
 62
     0
 10
0.289388
 20
87.5164
 30
0.0
 11
0.398254
 21
87.8113
 31
0.0
  0
LINE
  8
0
 62
     0
 10
0.398254
 20
87.8113
 30
0.0
 11
0.529167
 21
88.0953
 31
0.0
  0
LINE
  8
0
 62
     0
 10
0.529167
 20
88.0953
 30
0.0
 11
0.683507
 21
88.3694
 31
0.0
  0
LINE
  8
0
 62
     0
 10
0.683507
 20
88.3694
 30
0.0
 11
0.857141
 21
88.6312
 31
0.0
  0
LINE
  8
0
 62
     0
 10
0.857141
 20
88.6312
 30
0.0
 11
1.05282
 21
88.8781
 31
0.0
  0
LINE
  8
0
 62
     0
 10
1.05282
 20
88.8781
 30
0.0
 11
1.26642
 21
89.1081
 31
0.0
  0
LINE
  8
0
 62
     0
 10
1.26642
 20
89.1081
 30
0.0
 11
1.49655
 21
89.3216
 31
0.0
  0
LINE
  8
0
 62
     0
 10
1.49655
 20
89.3216
 30
0.0
 11
1.74322
 21
89.5174
 31
0.0
  0
LINE
  8
0
 62
     0
 10
1.74322
 20
89.5174
 30
0.0
 11
2.00504
 21
89.6909
 31
0.0
  0
LINE
  8
0
 62
     0
 10
2.00504
 20
89.6909
 30
0.0
 11
2.27928
 21
89.8454
 31
0.0
  0
LINE
  8
0
 62
     0
 10
2.27928
 20
89.8454
 30
0.0
 11
2.56315
 21
89.9763
 31
0.0
  0
LINE
  8
0
 62
     0
 10
2.56315
 20
89.9763
 30
0.0
 11
2.85805
 21
90.085
 31
0.0
  0
LINE
  8
0
 62
     0
 10
2.85805
 20
90.085
 30
0.0
 11
3.16122
 21
90.1693
 31
0.0
  0
LINE
  8
0
 62
     0
 10
3.16122
 20
90.1693
 30
0.0
 11
3.46852
 21
90.231
 31
0.0
  0
LINE
  8
0
 62
     0
 10
3.46852
 20
90.231
 30
0.0
 11
3.78135
 21
90.2684
 31
0.0
  0
LINE
  8
0
 62
     0
 10
3.78135
 20
90.2684
 30
0.0
 11
4.09416
 21
90.2808
 31
0.0
  0
LINE
  8
0
 62
     0
 10
4.09416
 20
90.2808
 30
0.0
 11
259.271
 21
90.2794
 31
0.0
  0
LINE
  8
0
 62
     0
 10
2.97518
 20
5.48185
 30
0.0
 11
2.41846
 21
5.19797
 31
0.0
  0
LINE
  8
0
 62
     0
 10
2.41846
 20
5.19797
 30
0.0
 11
1.97611
 21
4.75424
 31
0.0
  0
LINE
  8
0
 62
     0
 10
1.97611
 20
4.75424
 30
0.0
 11
1.69223
 21
4.19749
 31
0.0
  0
LINE
  8
0
 62
     0
 10
1.69223
 20
4.19749
 30
0.0
 11
1.59439
 21
3.57875
 31
0.0
  0
LINE
  8
0
 62
     0
 10
1.59439
 20
3.57875
 30
0.0
 11
1.69223
 21
2.9614
 31
0.0
  0
LINE
  8
0
 62
     0
 10
1.69223
 20
2.9614
 30
0.0
 11
1.97611
 21
2.4033
 31
0.0
  0
LINE
  8
0
 62
     0
 10
1.97611
 20
2.4033
 30
0.0
 11
2.41846
 21
1.96095
 31
0.0
  0
LINE
  8
0
 62
     0
 10
2.41846
 20
1.96095
 30
0.0
 11
2.97518
 21
1.67707
 31
0.0
  0
LINE
  8
0
 62
     0
 10
2.97518
 20
1.67707
 30
0.0
 11
3.5953
 21
1.57923
 31
0.0
  0
LINE
  8
0
 62
     0
 10
3.5953
 20
1.57923
 30
0.0
 11
4.21266
 21
1.67707
 31
0.0
  0
LINE
  8
0
 62
     0
 10
4.21266
 20
1.67707
 30
0.0
 11
4.76938
 21
1.96095
 31
0.0
  0
LINE
  8
0
 62
     0
 10
4.76938
 20
1.96095
 30
0.0
 11
5.2131
 21
2.4033
 31
0.0
  0
LINE
  8
0
 62
     0
 10
5.2131
 20
2.4033
 30
0.0
 11
5.49698
 21
2.9614
 31
0.0
  0
LINE
  8
0
 62
     0
 10
5.49698
 20
2.9614
 30
0.0
 11
5.59484
 21
3.57875
 31
0.0
  0
LINE
  8
0
 62
     0
 10
5.59484
 20
3.57875
 30
0.0
 11
5.49698
 21
4.19749
 31
0.0
  0
LINE
  8
0
 62
     0
 10
5.49698
 20
4.19749
 30
0.0
 11
5.2131
 21
4.75424
 31
0.0
  0
LINE
  8
0
 62
     0
 10
5.2131
 20
4.75424
 30
0.0
 11
4.76938
 21
5.19797
 31
0.0
  0
LINE
  8
0
 62
     0
 10
4.76938
 20
5.19797
 30
0.0
 11
4.21266
 21
5.48185
 31
0.0
  0
LINE
  8
0
 62
     0
 10
4.21266
 20
5.48185
 30
0.0
 11
3.5953
 21
5.5783
 31
0.0
  0
LINE
  8
0
 62
     0
 10
3.5953
 20
5.5783
 30
0.0
 11
2.97518
 21
5.48185
 31
0.0
  0
LINE
  8
0
 62
     0
 10
88.368
 20
5.48185
 30
0.0
 11
87.8113
 21
5.19797
 31
0.0
  0
LINE
  8
0
 62
     0
 10
87.8113
 20
5.19797
 30
0.0
 11
87.3675
 21
4.75424
 31
0.0
  0
LINE
  8
0
 62
     0
 10
87.3675
 20
4.75424
 30
0.0
 11
87.0839
 21
4.19749
 31
0.0
  0
LINE
  8
0
 62
     0
 10
87.0839
 20
4.19749
 30
0.0
 11
86.9872
 21
3.57875
 31
0.0
  0
LINE
  8
0
 62
     0
 10
86.9872
 20
3.57875
 30
0.0
 11
87.0839
 21
2.9614
 31
0.0
  0
LINE
  8
0
 62
     0
 10
87.0839
 20
2.9614
 30
0.0
 11
87.3675
 21
2.4033
 31
0.0
  0
LINE
  8
0
 62
     0
 10
87.3675
 20
2.4033
 30
0.0
 11
87.8113
 21
1.96095
 31
0.0
  0
LINE
  8
0
 62
     0
 10
87.8113
 20
1.96095
 30
0.0
 11
88.368
 21
1.67707
 31
0.0
  0
LINE
  8
0
 62
     0
 10
88.368
 20
1.67707
 30
0.0
 11
88.9868
 21
1.57923
 31
0.0
  0
LINE
  8
0
 62
     0
 10
88.9868
 20
1.57923
 30
0.0
 11
89.6041
 21
1.67707
 31
0.0
  0
LINE
  8
0
 62
     0
 10
89.6041
 20
1.67707
 30
0.0
 11
90.1622
 21
1.96095
 31
0.0
  0
LINE
  8
0
 62
     0
 10
90.1622
 20
1.96095
 30
0.0
 11
90.6046
 21
2.4033
 31
0.0
  0
LINE
  8
0
 62
     0
 10
90.6046
 20
2.4033
 30
0.0
 11
90.8886
 21
2.9614
 31
0.0
  0
LINE
  8
0
 62
     0
 10
90.8886
 20
2.9614
 30
0.0
 11
90.9863
 21
3.57875
 31
0.0
  0
LINE
  8
0
 62
     0
 10
90.9863
 20
3.57875
 30
0.0
 11
90.8886
 21
4.19749
 31
0.0
  0
LINE
  8
0
 62
     0
 10
90.8886
 20
4.19749
 30
0.0
 11
90.6046
 21
4.75424
 31
0.0
  0
LINE
  8
0
 62
     0
 10
90.6046
 20
4.75424
 30
0.0
 11
90.1622
 21
5.19797
 31
0.0
  0
LINE
  8
0
 62
     0
 10
90.1622
 20
5.19797
 30
0.0
 11
89.6041
 21
5.48185
 31
0.0
  0
LINE
  8
0
 62
     0
 10
89.6041
 20
5.48185
 30
0.0
 11
88.9868
 21
5.5783
 31
0.0
  0
LINE
  8
0
 62
     0
 10
88.9868
 20
5.5783
 30
0.0
 11
88.368
 21
5.48185
 31
0.0
  0
LINE
  8
0
 62
     0
 10
173.76
 20
5.48185
 30
0.0
 11
173.203
 21
5.19797
 31
0.0
  0
LINE
  8
0
 62
     0
 10
173.203
 20
5.19797
 30
0.0
 11
172.759
 21
4.75424
 31
0.0
  0
LINE
  8
0
 62
     0
 10
172.759
 20
4.75424
 30
0.0
 11
172.475
 21
4.19749
 31
0.0
  0
LINE
  8
0
 62
     0
 10
172.475
 20
4.19749
 30
0.0
 11
172.379
 21
3.57875
 31
0.0
  0
LINE
  8
0
 62
     0
 10
172.379
 20
3.57875
 30
0.0
 11
172.475
 21
2.9614
 31
0.0
  0
LINE
  8
0
 62
     0
 10
172.475
 20
2.9614
 30
0.0
 11
172.759
 21
2.4033
 31
0.0
  0
LINE
  8
0
 62
     0
 10
172.759
 20
2.4033
 30
0.0
 11
173.203
 21
1.96095
 31
0.0
  0
LINE
  8
0
 62
     0
 10
173.203
 20
1.96095
 30
0.0
 11
173.76
 21
1.67707
 31
0.0
  0
LINE
  8
0
 62
     0
 10
173.76
 20
1.67707
 30
0.0
 11
174.378
 21
1.57923
 31
0.0
  0
LINE
  8
0
 62
     0
 10
174.378
 20
1.57923
 30
0.0
 11
174.997
 21
1.67707
 31
0.0
  0
LINE
  8
0
 62
     0
 10
174.997
 20
1.67707
 30
0.0
 11
175.554
 21
1.96095
 31
0.0
  0
LINE
  8
0
 62
     0
 10
175.554
 20
1.96095
 30
0.0
 11
175.996
 21
2.4033
 31
0.0
  0
LINE
  8
0
 62
     0
 10
175.996
 20
2.4033
 30
0.0
 11
176.281
 21
2.9614
 31
0.0
  0
LINE
  8
0
 62
     0
 10
176.281
 20
2.9614
 30
0.0
 11
176.379
 21
3.57875
 31
0.0
  0
LINE
  8
0
 62
     0
 10
176.379
 20
3.57875
 30
0.0
 11
176.281
 21
4.19749
 31
0.0
  0
LINE
  8
0
 62
     0
 10
176.281
 20
4.19749
 30
0.0
 11
175.996
 21
4.75424
 31
0.0
  0
LINE
  8
0
 62
     0
 10
175.996
 20
4.75424
 30
0.0
 11
175.554
 21
5.19797
 31
0.0
  0
LINE
  8
0
 62
     0
 10
175.554
 20
5.19797
 30
0.0
 11
174.997
 21
5.48185
 31
0.0
  0
LINE
  8
0
 62
     0
 10
174.997
 20
5.48185
 30
0.0
 11
174.378
 21
5.5783
 31
0.0
  0
LINE
  8
0
 62
     0
 10
174.378
 20
5.5783
 30
0.0
 11
173.76
 21
5.48185
 31
0.0
  0
LINE
  8
0
 62
     0
 10
259.151
 20
5.48185
 30
0.0
 11
258.594
 21
5.19797
 31
0.0
  0
LINE
  8
0
 62
     0
 10
258.594
 20
5.19797
 30
0.0
 11
258.152
 21
4.75424
 31
0.0
  0
LINE
  8
0
 62
     0
 10
258.152
 20
4.75424
 30
0.0
 11
257.868
 21
4.19749
 31
0.0
  0
LINE
  8
0
 62
     0
 10
257.868
 20
4.19749
 30
0.0
 11
257.77
 21
3.57875
 31
0.0
  0
LINE
  8
0
 62
     0
 10
257.77
 20
3.57875
 30
0.0
 11
257.868
 21
2.9614
 31
0.0
  0
LINE
  8
0
 62
     0
 10
257.868
 20
2.9614
 30
0.0
 11
258.152
 21
2.4033
 31
0.0
  0
LINE
  8
0
 62
     0
 10
258.152
 20
2.4033
 30
0.0
 11
258.594
 21
1.96095
 31
0.0
  0
LINE
  8
0
 62
     0
 10
258.594
 20
1.96095
 30
0.0
 11
259.151
 21
1.67707
 31
0.0
  0
LINE
  8
0
 62
     0
 10
259.151
 20
1.67707
 30
0.0
 11
259.771
 21
1.57923
 31
0.0
  0
LINE
  8
0
 62
     0
 10
259.771
 20
1.57923
 30
0.0
 11
260.388
 21
1.67707
 31
0.0
  0
LINE
  8
0
 62
     0
 10
260.388
 20
1.67707
 30
0.0
 11
260.945
 21
1.96095
 31
0.0
  0
LINE
  8
0
 62
     0
 10
260.945
 20
1.96095
 30
0.0
 11
261.389
 21
2.4033
 31
0.0
  0
LINE
  8
0
 62
     0
 10
261.389
 20
2.4033
 30
0.0
 11
261.673
 21
2.9614
 31
0.0
  0
LINE
  8
0
 62
     0
 10
261.673
 20
2.9614
 30
0.0
 11
261.771
 21
3.57875
 31
0.0
  0
LINE
  8
0
 62
     0
 10
261.771
 20
3.57875
 30
0.0
 11
261.673
 21
4.19749
 31
0.0
  0
LINE
  8
0
 62
     0
 10
261.673
 20
4.19749
 30
0.0
 11
261.389
 21
4.75424
 31
0.0
  0
LINE
  8
0
 62
     0
 10
261.389
 20
4.75424
 30
0.0
 11
260.945
 21
5.19797
 31
0.0
  0
LINE
  8
0
 62
     0
 10
260.945
 20
5.19797
 30
0.0
 11
260.388
 21
5.48185
 31
0.0
  0
LINE
  8
0
 62
     0
 10
260.388
 20
5.48185
 30
0.0
 11
259.771
 21
5.5783
 31
0.0
  0
LINE
  8
0
 62
     0
 10
259.771
 20
5.5783
 30
0.0
 11
259.151
 21
5.48185
 31
0.0
  0
LINE
  8
0
 62
     0
 10
3.09507
 20
83.2803
 30
0.0
 11
260.27
 21
83.2803
 31
0.0
  0
LINE
  8
0
 62
     0
 10
260.27
 20
83.2803
 30
0.0
 11
260.27
 21
7.07898
 31
0.0
  0
LINE
  8
0
 62
     0
 10
260.27
 20
7.07898
 30
0.0
 11
3.09507
 21
7.07898
 31
0.0
  0
LINE
  8
0
 62
     0
 10
3.09507
 20
7.07898
 30
0.0
 11
3.09507
 21
83.2803
 31
0.0
  0
LINE
  8
0
 62
     0
 10
2.97518
 20
88.6823
 30
0.0
 11
2.41846
 21
88.3984
 31
0.0
  0
LINE
  8
0
 62
     0
 10
2.41846
 20
88.3984
 30
0.0
 11
1.97611
 21
87.956
 31
0.0
  0
LINE
  8
0
 62
     0
 10
1.97611
 20
87.956
 30
0.0
 11
1.69223
 21
87.3993
 31
0.0
  0
LINE
  8
0
 62
     0
 10
1.69223
 20
87.3993
 30
0.0
 11
1.59439
 21
86.7791
 31
0.0
  0
LINE
  8
0
 62
     0
 10
1.59439
 20
86.7791
 30
0.0
 11
1.69223
 21
86.1617
 31
0.0
  0
LINE
  8
0
 62
     0
 10
1.69223
 20
86.1617
 30
0.0
 11
1.97611
 21
85.6051
 31
0.0
  0
LINE
  8
0
 62
     0
 10
1.97611
 20
85.6051
 30
0.0
 11
2.41846
 21
85.1613
 31
0.0
  0
LINE
  8
0
 62
     0
 10
2.41846
 20
85.1613
 30
0.0
 11
2.97518
 21
84.8776
 31
0.0
  0
LINE
  8
0
 62
     0
 10
2.97518
 20
84.8776
 30
0.0
 11
3.5953
 21
84.7796
 31
0.0
  0
LINE
  8
0
 62
     0
 10
3.5953
 20
84.7796
 30
0.0
 11
4.21266
 21
84.8776
 31
0.0
  0
LINE
  8
0
 62
     0
 10
4.21266
 20
84.8776
 30
0.0
 11
4.76938
 21
85.1613
 31
0.0
  0
LINE
  8
0
 62
     0
 10
4.76938
 20
85.1613
 30
0.0
 11
5.2131
 21
85.6051
 31
0.0
  0
LINE
  8
0
 62
     0
 10
5.2131
 20
85.6051
 30
0.0
 11
5.49698
 21
86.1617
 31
0.0
  0
LINE
  8
0
 62
     0
 10
5.49698
 20
86.1617
 30
0.0
 11
5.59484
 21
86.7791
 31
0.0
  0
LINE
  8
0
 62
     0
 10
5.59484
 20
86.7791
 30
0.0
 11
5.49698
 21
87.3993
 31
0.0
  0
LINE
  8
0
 62
     0
 10
5.49698
 20
87.3993
 30
0.0
 11
5.2131
 21
87.956
 31
0.0
  0
LINE
  8
0
 62
     0
 10
5.2131
 20
87.956
 30
0.0
 11
4.76938
 21
88.3984
 31
0.0
  0
LINE
  8
0
 62
     0
 10
4.76938
 20
88.3984
 30
0.0
 11
4.21266
 21
88.6823
 31
0.0
  0
LINE
  8
0
 62
     0
 10
4.21266
 20
88.6823
 30
0.0
 11
3.5953
 21
88.7801
 31
0.0
  0
LINE
  8
0
 62
     0
 10
3.5953
 20
88.7801
 30
0.0
 11
2.97518
 21
88.6823
 31
0.0
  0
LINE
  8
0
 62
     0
 10
88.368
 20
88.6823
 30
0.0
 11
87.8113
 21
88.3984
 31
0.0
  0
LINE
  8
0
 62
     0
 10
87.8113
 20
88.3984
 30
0.0
 11
87.3675
 21
87.956
 31
0.0
  0
LINE
  8
0
 62
     0
 10
87.3675
 20
87.956
 30
0.0
 11
87.0839
 21
87.3993
 31
0.0
  0
LINE
  8
0
 62
     0
 10
87.0839
 20
87.3993
 30
0.0
 11
86.9872
 21
86.7791
 31
0.0
  0
LINE
  8
0
 62
     0
 10
86.9872
 20
86.7791
 30
0.0
 11
87.0839
 21
86.1617
 31
0.0
  0
LINE
  8
0
 62
     0
 10
87.0839
 20
86.1617
 30
0.0
 11
87.3675
 21
85.6051
 31
0.0
  0
LINE
  8
0
 62
     0
 10
87.3675
 20
85.6051
 30
0.0
 11
87.8113
 21
85.1613
 31
0.0
  0
LINE
  8
0
 62
     0
 10
87.8113
 20
85.1613
 30
0.0
 11
88.368
 21
84.8776
 31
0.0
  0
LINE
  8
0
 62
     0
 10
88.368
 20
84.8776
 30
0.0
 11
88.9868
 21
84.7796
 31
0.0
  0
LINE
  8
0
 62
     0
 10
88.9868
 20
84.7796
 30
0.0
 11
89.6041
 21
84.8776
 31
0.0
  0
LINE
  8
0
 62
     0
 10
89.6041
 20
84.8776
 30
0.0
 11
90.1622
 21
85.1613
 31
0.0
  0
LINE
  8
0
 62
     0
 10
90.1622
 20
85.1613
 30
0.0
 11
90.6046
 21
85.6051
 31
0.0
  0
LINE
  8
0
 62
     0
 10
90.6046
 20
85.6051
 30
0.0
 11
90.8886
 21
86.1617
 31
0.0
  0
LINE
  8
0
 62
     0
 10
90.8886
 20
86.1617
 30
0.0
 11
90.9863
 21
86.7791
 31
0.0
  0
LINE
  8
0
 62
     0
 10
90.9863
 20
86.7791
 30
0.0
 11
90.8886
 21
87.3993
 31
0.0
  0
LINE
  8
0
 62
     0
 10
90.8886
 20
87.3993
 30
0.0
 11
90.6046
 21
87.956
 31
0.0
  0
LINE
  8
0
 62
     0
 10
90.6046
 20
87.956
 30
0.0
 11
90.1622
 21
88.3984
 31
0.0
  0
LINE
  8
0
 62
     0
 10
90.1622
 20
88.3984
 30
0.0
 11
89.6041
 21
88.6823
 31
0.0
  0
LINE
  8
0
 62
     0
 10
89.6041
 20
88.6823
 30
0.0
 11
88.9868
 21
88.7801
 31
0.0
  0
LINE
  8
0
 62
     0
 10
88.9868
 20
88.7801
 30
0.0
 11
88.368
 21
88.6823
 31
0.0
  0
LINE
  8
0
 62
     0
 10
173.76
 20
88.6823
 30
0.0
 11
173.203
 21
88.3984
 31
0.0
  0
LINE
  8
0
 62
     0
 10
173.203
 20
88.3984
 30
0.0
 11
172.759
 21
87.956
 31
0.0
  0
LINE
  8
0
 62
     0
 10
172.759
 20
87.956
 30
0.0
 11
172.475
 21
87.3993
 31
0.0
  0
LINE
  8
0
 62
     0
 10
172.475
 20
87.3993
 30
0.0
 11
172.379
 21
86.7791
 31
0.0
  0
LINE
  8
0
 62
     0
 10
172.379
 20
86.7791
 30
0.0
 11
172.475
 21
86.1617
 31
0.0
  0
LINE
  8
0
 62
     0
 10
172.475
 20
86.1617
 30
0.0
 11
172.759
 21
85.6051
 31
0.0
  0
LINE
  8
0
 62
     0
 10
172.759
 20
85.6051
 30
0.0
 11
173.203
 21
85.1613
 31
0.0
  0
LINE
  8
0
 62
     0
 10
173.203
 20
85.1613
 30
0.0
 11
173.76
 21
84.8776
 31
0.0
  0
LINE
  8
0
 62
     0
 10
173.76
 20
84.8776
 30
0.0
 11
174.378
 21
84.7796
 31
0.0
  0
LINE
  8
0
 62
     0
 10
174.378
 20
84.7796
 30
0.0
 11
174.997
 21
84.8776
 31
0.0
  0
LINE
  8
0
 62
     0
 10
174.997
 20
84.8776
 30
0.0
 11
175.554
 21
85.1613
 31
0.0
  0
LINE
  8
0
 62
     0
 10
175.554
 20
85.1613
 30
0.0
 11
175.996
 21
85.6051
 31
0.0
  0
LINE
  8
0
 62
     0
 10
175.996
 20
85.6051
 30
0.0
 11
176.281
 21
86.1617
 31
0.0
  0
LINE
  8
0
 62
     0
 10
176.281
 20
86.1617
 30
0.0
 11
176.379
 21
86.7791
 31
0.0
  0
LINE
  8
0
 62
     0
 10
176.379
 20
86.7791
 30
0.0
 11
176.281
 21
87.3993
 31
0.0
  0
LINE
  8
0
 62
     0
 10
176.281
 20
87.3993
 30
0.0
 11
175.996
 21
87.956
 31
0.0
  0
LINE
  8
0
 62
     0
 10
175.996
 20
87.956
 30
0.0
 11
175.554
 21
88.3984
 31
0.0
  0
LINE
  8
0
 62
     0
 10
175.554
 20
88.3984
 30
0.0
 11
174.997
 21
88.6823
 31
0.0
  0
LINE
  8
0
 62
     0
 10
174.997
 20
88.6823
 30
0.0
 11
174.378
 21
88.7801
 31
0.0
  0
LINE
  8
0
 62
     0
 10
174.378
 20
88.7801
 30
0.0
 11
173.76
 21
88.6823
 31
0.0
  0
LINE
  8
0
 62
     0
 10
259.151
 20
88.6823
 30
0.0
 11
258.594
 21
88.3984
 31
0.0
  0
LINE
  8
0
 62
     0
 10
258.594
 20
88.3984
 30
0.0
 11
258.152
 21
87.956
 31
0.0
  0
LINE
  8
0
 62
     0
 10
258.152
 20
87.956
 30
0.0
 11
257.868
 21
87.3993
 31
0.0
  0
LINE
  8
0
 62
     0
 10
257.868
 20
87.3993
 30
0.0
 11
257.77
 21
86.7791
 31
0.0
  0
LINE
  8
0
 62
     0
 10
257.77
 20
86.7791
 30
0.0
 11
257.868
 21
86.1617
 31
0.0
  0
LINE
  8
0
 62
     0
 10
257.868
 20
86.1617
 30
0.0
 11
258.152
 21
85.6051
 31
0.0
  0
LINE
  8
0
 62
     0
 10
258.152
 20
85.6051
 30
0.0
 11
258.594
 21
85.1613
 31
0.0
  0
LINE
  8
0
 62
     0
 10
258.594
 20
85.1613
 30
0.0
 11
259.151
 21
84.8776
 31
0.0
  0
LINE
  8
0
 62
     0
 10
259.151
 20
84.8776
 30
0.0
 11
259.771
 21
84.7796
 31
0.0
  0
LINE
  8
0
 62
     0
 10
259.771
 20
84.7796
 30
0.0
 11
260.388
 21
84.8776
 31
0.0
  0
LINE
  8
0
 62
     0
 10
260.388
 20
84.8776
 30
0.0
 11
260.945
 21
85.1613
 31
0.0
  0
LINE
  8
0
 62
     0
 10
260.945
 20
85.1613
 30
0.0
 11
261.389
 21
85.6051
 31
0.0
  0
LINE
  8
0
 62
     0
 10
261.389
 20
85.6051
 30
0.0
 11
261.673
 21
86.1617
 31
0.0
  0
LINE
  8
0
 62
     0
 10
261.673
 20
86.1617
 30
0.0
 11
261.771
 21
86.7791
 31
0.0
  0
LINE
  8
0
 62
     0
 10
261.771
 20
86.7791
 30
0.0
 11
261.673
 21
87.3993
 31
0.0
  0
LINE
  8
0
 62
     0
 10
261.673
 20
87.3993
 30
0.0
 11
261.389
 21
87.956
 31
0.0
  0
LINE
  8
0
 62
     0
 10
261.389
 20
87.956
 30
0.0
 11
260.945
 21
88.3984
 31
0.0
  0
LINE
  8
0
 62
     0
 10
260.945
 20
88.3984
 30
0.0
 11
260.388
 21
88.6823
 31
0.0
  0
LINE
  8
0
 62
     0
 10
260.388
 20
88.6823
 30
0.0
 11
259.771
 21
88.7801
 31
0.0
  0
LINE
  8
0
 62
     0
 10
259.771
 20
88.7801
 30
0.0
 11
259.151
 21
88.6823
 31
0.0
  0
ENDSEC
  0
EOF
