<?xml version="1.0"?>
<!-- Generated by SVGo -->
<svg width="273.177mm" height="100.202mm"
     viewBox="0.000 0.000 273.177 100.202"
     xmlns="http://www.w3.org/2000/svg" 
     xmlns:xlink="http://www.w3.org/1999/xlink">
<polygon points="264.177,5.001 264.490,5.013 264.802,5.050 265.110,5.111 265.413,5.196 265.707,5.305 265.992,5.436 266.266,5.590 266.528,5.764 266.774,5.959 267.005,6.172 267.218,6.403 267.413,6.649 267.587,6.911 267.741,7.185 267.872,7.470 267.981,7.764 268.066,8.067 268.127,8.375 268.164,8.687 268.177,9.001 268.177,91.202 268.164,91.515 268.127,91.827 268.066,92.135 267.981,92.438 267.872,92.732 267.741,93.017 267.587,93.291 267.413,93.553 267.218,93.799 267.005,94.030 266.774,94.243 266.528,94.438 266.266,94.612 265.992,94.766 265.707,94.897 265.413,95.006 265.110,95.091 264.802,95.152 264.490,95.189 264.177,95.202 9.001,95.202 8.687,95.189 8.375,95.152 8.067,95.091 7.764,95.006 7.470,94.897 7.185,94.766 6.911,94.612 6.649,94.438 6.403,94.243 6.172,94.030 5.959,93.799 5.764,93.553 5.590,93.291 5.436,93.017 5.305,92.732 5.196,92.438 5.111,92.135 5.050,91.827 5.013,91.515 5.000,91.202 5.001,9.001 5.013,8.687 5.050,8.375 5.111,8.067 5.196,7.764 5.305,7.470 5.436,7.185 5.590,6.911 5.764,6.649 5.959,6.403 6.172,6.172 6.403,5.959 6.649,5.764 6.911,5.590 7.185,5.436 7.470,5.305 7.764,5.196 8.067,5.111 8.375,5.050 8.687,5.013 9.001,5.000" style="fill:none;stroke-width:0.050000mm;stroke:black"/>
<polygon points="7.882,89.799 7.325,90.083 6.882,90.526 6.598,91.083 6.500,91.702 6.598,92.320 6.882,92.877 7.325,93.320 7.882,93.604 8.501,93.702 9.119,93.604 9.676,93.320 10.119,92.877 10.403,92.320 10.501,91.702 10.403,91.083 10.119,90.526 9.676,90.083 9.119,89.799 8.501,89.702" style="fill:none;stroke-width:0.050000mm;stroke:black"/>
<polygon points="93.274,89.799 92.717,90.083 92.274,90.526 91.990,91.083 91.893,91.702 91.990,92.320 92.274,92.877 92.717,93.320 93.274,93.604 93.893,93.702 94.511,93.604 95.068,93.320 95.511,92.877 95.795,92.320 95.893,91.702 95.795,91.083 95.511,90.526 95.068,90.083 94.511,89.799 93.893,89.702" style="fill:none;stroke-width:0.050000mm;stroke:black"/>
<polygon points="178.666,89.799 178.109,90.083 177.666,90.526 177.382,91.083 177.285,91.702 177.382,92.320 177.666,92.877 178.109,93.320 178.666,93.604 179.285,93.702 179.903,93.604 180.460,93.320 180.903,92.877 181.187,92.320 181.285,91.702 181.187,91.083 180.903,90.526 180.460,90.083 179.903,89.799 179.285,89.702" style="fill:none;stroke-width:0.050000mm;stroke:black"/>
<polygon points="264.058,89.799 263.501,90.083 263.058,90.526 262.774,91.083 262.677,91.702 262.774,92.320 263.058,92.877 263.501,93.320 264.058,93.604 264.677,93.702 265.295,93.604 265.852,93.320 266.295,92.877 266.579,92.320 266.677,91.702 266.579,91.083 266.295,90.526 265.852,90.083 265.295,89.799 264.677,89.702" style="fill:none;stroke-width:0.050000mm;stroke:black"/>
<polygon points="46.100,11.999 46.100,16.762 7.999,16.762 7.999,73.914 46.102,73.914 46.102,69.152 65.150,69.152 65.150,88.202 131.827,88.202 131.827,69.152 141.350,69.152 141.350,88.202 208.027,88.202 208.027,69.152 227.075,69.152 227.075,73.914 265.177,73.914 265.177,16.762 227.077,16.762 227.077,11.999 150.874,11.999 150.874,69.150 146.114,69.150 146.114,50.100 127.062,50.100 127.062,69.150 122.301,69.150 122.301,11.999" style="fill:none;stroke-width:0.050000mm;stroke:black"/>
<polygon points="7.882,6.598 7.325,6.882 6.882,7.325 6.598,7.882 6.500,8.501 6.598,9.119 6.882,9.676 7.325,10.119 7.882,10.403 8.501,10.501 9.119,10.403 9.676,10.119 10.119,9.676 10.403,9.119 10.501,8.501 10.403,7.882 10.119,7.325 9.676,6.882 9.119,6.598 8.501,6.501" style="fill:none;stroke-width:0.050000mm;stroke:black"/>
<polygon points="93.274,6.598 92.717,6.882 92.274,7.325 91.990,7.882 91.893,8.501 91.990,9.119 92.274,9.676 92.717,10.119 93.274,10.403 93.893,10.501 94.511,10.403 95.068,10.119 95.511,9.676 95.795,9.119 95.893,8.501 95.795,7.882 95.511,7.325 95.068,6.882 94.511,6.598 93.893,6.501" style="fill:none;stroke-width:0.050000mm;stroke:black"/>
<polygon points="178.666,6.598 178.109,6.882 177.666,7.325 177.382,7.882 177.285,8.501 177.382,9.119 177.666,9.676 178.109,10.119 178.666,10.403 179.285,10.501 179.903,10.403 180.460,10.119 180.903,9.676 181.187,9.119 181.285,8.501 181.187,7.882 180.903,7.325 180.460,6.882 179.903,6.598 179.285,6.501" style="fill:none;stroke-width:0.050000mm;stroke:black"/>
<polygon points="264.058,6.598 263.501,6.882 263.058,7.325 262.774,7.882 262.677,8.501 262.774,9.119 263.058,9.676 263.501,10.119 264.058,10.403 264.677,10.501 265.295,10.403 265.852,10.119 266.295,9.676 266.579,9.119 266.677,8.501 266.579,7.882 266.295,7.325 265.852,6.882 265.295,6.598 264.677,6.501" style="fill:none;stroke-width:0.050000mm;stroke:black"/>
</svg>
